HIERARCHY
ROOT Hips
{
	OFFSET 0.000000 88.474243 0.000000
	CHANNELS 6 Xposition Yposition Zposition Zrotation Yrotation Xrotation 
	JOINT Hips_Spine
	{
		OFFSET 0.000000 0.000000 0.000000
		CHANNELS 3 Zrotation Yrotation Xrotation
		JOINT Spine
		{
			OFFSET 0.005100 8.711998 -0.691000
			CHANNELS 3 Zrotation Yrotation Xrotation
			JOINT Spine1
			{
				OFFSET -0.009200 8.660301 -1.275000
				CHANNELS 3 Zrotation Yrotation Xrotation
				JOINT Spine2
				{
					OFFSET 0.006300 9.852501 -1.857000
					CHANNELS 3 Zrotation Yrotation Xrotation
					JOINT Spine2_Neck
					{
						OFFSET 0.000000 0.000000 0.000000
						CHANNELS 3 Zrotation Yrotation Xrotation
						JOINT Neck
						{
							OFFSET 0.016300 11.420799 -0.263300
							CHANNELS 3 Zrotation Yrotation Xrotation
							End Site #name: Head
							{
								OFFSET -0.019200 9.262405 2.362500
							}
						}
					}
					JOINT Spine2_LeftShoulder
					{
						OFFSET 0.000000 0.000000 0.000000
						CHANNELS 3 Zrotation Yrotation Xrotation
						JOINT LeftShoulder
						{
							OFFSET 5.616900 6.732201 -0.345700
							CHANNELS 3 Zrotation Yrotation Xrotation
							JOINT LeftArm
							{
								OFFSET 10.664888 -0.183372 -2.440700
								CHANNELS 3 Zrotation Yrotation Xrotation
								JOINT LeftForeArm
								{
									OFFSET 27.459126 0.000000 0.000000
									CHANNELS 3 Zrotation Yrotation Xrotation
									End Site #name: LeftHand
									{
										OFFSET 21.306858 0.000000 0.000000
									}
								}
							}
						}
					}
					JOINT Spine2_RightShoulder
					{
						OFFSET 0.000000 0.000000 0.000000
						CHANNELS 3 Zrotation Yrotation Xrotation
						JOINT RightShoulder
						{
							OFFSET -5.580300 6.737503 -0.344400
							CHANNELS 3 Zrotation Yrotation Xrotation
							JOINT RightArm
							{
								OFFSET -10.679335 -0.188484 -2.383900
								CHANNELS 3 Zrotation Yrotation Xrotation
								JOINT RightForeArm
								{
									OFFSET -27.503529 0.000000 0.000000
									CHANNELS 3 Zrotation Yrotation Xrotation
									End Site #name: RightHand
									{
										OFFSET -21.306808 0.000000 0.000000
									}
								}
							}
						}
					}
				}
			}
		}
	}
	JOINT Hips_LeftUpLeg
	{
		OFFSET 0.000000 0.000000 0.000000
		CHANNELS 3 Zrotation Yrotation Xrotation
		JOINT LeftUpLeg
		{
			OFFSET 6.857700 -6.739601 0.312100
			CHANNELS 3 Zrotation Yrotation Xrotation
			JOINT LeftLeg
			{
				OFFSET -0.367590 -34.731552 -4.572400
				CHANNELS 3 Zrotation Yrotation Xrotation
				End Site #name: LeftFoot
				{
					OFFSET 0.367590 -34.656704 -6.067400
				}
			}
		}
	}
	JOINT Hips_RightUpLeg
	{
		OFFSET 0.000000 0.000000 0.000000
		CHANNELS 3 Zrotation Yrotation Xrotation
		JOINT RightUpLeg
		{
			OFFSET -6.876100 -6.733299 0.301000
			CHANNELS 3 Zrotation Yrotation Xrotation
			JOINT RightLeg
			{
				OFFSET 0.347353 -34.795158 -4.515900
				CHANNELS 3 Zrotation Yrotation Xrotation
				End Site #name: RightFoot
				{
					OFFSET -0.347353 -34.589367 -6.070300
				}
			}
		}
	}
}
MOTION
Frames: 6
Frame Time: 0.041667
0.059732 -0.026435 -0.099033 179.212617 27.557928 -177.807428 -0.000000 -0.000000 0.000000 -3.347803 1.676155 -1.240999 2.128208 -0.548698 3.329885 0.000000 0.000000 0.000000 1.793153 -1.077277 0.272351 -1.159430 -7.906289 -2.014633 1.146079 -0.273335 0.858869 -4.728548 -7.600531 1.473102 -73.711535 -5.933047 11.348062 0.039340 -25.757724 1.576850 1.099607 -1.126064 2.814469 17.613873 14.060647 3.596864 50.675876 15.458186 -8.117992 -6.156985 66.905602 -0.238545 0.000000 -0.000000 0.000000 -5.169390 17.722912 -15.006594 -5.711086 -29.201011 -1.368240 0.000000 -0.000000 -0.000000 -6.777231 -24.443811 -10.328104 -14.246478 -9.243229 18.755778 
0.143757 -0.186428 -0.212064 177.395865 45.895678 -178.056505 -0.000000 -0.000000 0.000000 -6.048838 1.031142 2.455102 2.833785 -0.686138 3.109945 0.000000 0.000000 0.000000 2.662150 -0.959570 1.780122 -0.004877 -13.901595 -1.688793 1.830297 -0.414496 0.598564 -2.753224 -9.476749 1.477755 -80.159817 -12.551994 6.263288 -1.171959 -20.733377 1.458944 2.727349 -1.399650 2.545730 22.306652 15.876717 4.282275 49.851850 17.767767 -7.829594 -3.508634 58.256085 1.438119 0.000000 -0.000000 -0.000000 -4.514726 17.999541 -14.757868 -4.125398 -27.406634 -4.606252 0.000000 -0.000000 -0.000000 -7.026538 -28.261460 -10.138484 -12.557686 -6.231444 18.556150 
0.205945 -0.233822 -0.263804 176.519707 39.151614 -178.693104 -0.000000 -0.000000 0.000000 -6.193150 -2.425018 2.954924 3.299311 -1.010010 3.020405 0.000000 0.000000 0.000000 3.484298 -1.278537 2.289687 0.064628 -20.948394 -1.395198 2.146165 -0.507457 0.414157 -1.408294 -8.710892 0.744988 -81.232504 -12.626670 1.046099 -0.913199 -15.867931 1.761180 3.336572 -1.766461 2.310156 23.230838 17.194528 4.909788 50.813350 20.051379 -1.889481 -3.091254 58.575789 1.880968 0.000000 -0.000000 -0.000000 -3.255499 18.785958 -13.739630 -3.411183 -26.467327 -5.193701 -0.000000 -0.000000 -0.000000 -7.098615 -31.550989 -8.667691 -12.278044 -5.936787 18.728952 
0.342661 -0.263194 -0.322941 177.251313 30.432686 -178.892413 -0.000000 -0.000000 0.000000 -5.685550 -4.285461 4.409209 3.085296 -1.404075 3.016294 0.000000 0.000000 0.000000 3.505353 -1.646597 2.587042 -0.673767 -24.309718 -1.353086 2.141497 -0.791065 0.265329 -0.985615 -7.933706 0.226052 -81.756994 -13.744842 1.021060 -0.546072 -13.156532 1.688021 3.268243 -2.369584 2.255883 22.421929 17.034530 5.007122 51.429195 23.091053 1.071734 -3.009226 64.706746 1.864773 0.000000 0.000000 -0.000000 -2.526869 18.954451 -12.410241 -3.022105 -27.043912 -5.962401 -0.000000 -0.000000 -0.000000 -7.154814 -35.836794 -7.944564 -12.331248 -5.245360 18.790319 
0.488983 -0.267233 -0.423103 177.315787 22.559424 -179.215844 -0.000000 -0.000000 0.000000 -4.325135 -5.372928 4.887779 2.606679 -1.713573 2.979090 0.000000 0.000000 0.000000 3.178764 -1.941461 3.134642 -0.371948 -25.446706 -1.258137 1.789234 -1.153631 0.385502 -0.450726 -6.817411 -0.679842 -81.552606 -14.948151 1.446588 0.706942 -12.773987 3.231347 2.725084 -2.808954 2.277076 21.035464 16.361636 4.697991 52.068481 25.301087 2.802464 -3.075543 70.353460 1.488043 0.000000 0.000000 -0.000000 -2.224895 18.877390 -11.639854 -2.838134 -27.822281 -6.548113 -0.000000 -0.000000 -0.000000 -7.022587 -39.107602 -7.688697 -13.003720 -4.801142 18.971502 
0.651825 -0.249574 -0.541934 176.906565 17.632123 -179.386960 -0.000000 -0.000000 0.000000 -2.759412 -5.803679 5.312175 1.978646 -1.914242 3.158980 0.000000 0.000000 0.000000 2.648945 -2.065211 3.775639 -0.023278 -25.289656 -1.208430 1.336843 -1.371990 0.657295 -0.388181 -6.425224 -0.866815 -81.501624 -15.408104 2.558320 2.723990 -13.010946 5.800056 2.117279 -3.040661 2.293072 20.064839 15.871220 4.564985 52.950083 25.325173 4.124082 -4.148907 74.623975 0.227773 0.000000 0.000000 -0.000000 -2.227395 18.532744 -11.506828 -2.873185 -28.282222 -6.723483 -0.000000 -0.000000 -0.000000 -6.685052 -41.792869 -8.011669 -13.823106 -4.967708 19.292478 
